<?xml version="1.0" standalone="no"?>
<!DOCTYPE svg PUBLIC "-//W3C//DTD SVG 20010904//EN"
 "http://www.w3.org/TR/2001/REC-SVG-20010904/DTD/svg10.dtd">
<svg version="1.0" xmlns="http://www.w3.org/2000/svg"
 width="225.000000pt" height="225.000000pt" viewBox="0 0 225.000000 225.000000"
 preserveAspectRatio="xMidYMid meet">

<g transform="translate(0.000000,225.000000) scale(0.100000,-0.100000)"
fill="#000000" stroke="none">
<path d="M577 2125 c-55 -8 -110 -21 -123 -30 -17 -11 -47 -16 -89 -16 -47 0
-70 -5 -86 -18 -29 -23 -19 -51 18 -51 57 0 69 -11 121 -100 51 -87 52 -90 58
-192 4 -64 12 -109 20 -119 9 -10 19 -83 29 -230 29 -410 46 -574 58 -581 7
-3 37 -26 67 -50 l54 -43 -37 -8 c-21 -5 -48 -22 -62 -39 -22 -26 -25 -39 -25
-101 0 -109 55 -210 129 -238 33 -13 86 6 110 39 l19 26 12 -59 c6 -33 19 -71
27 -84 9 -13 60 -45 121 -75 93 -44 115 -51 167 -51 74 1 156 38 165 75 4 19
28 34 110 72 90 41 111 47 146 42 48 -7 89 14 98 49 3 12 17 112 31 222 14
110 36 283 49 385 14 102 30 249 37 327 12 134 13 142 35 147 20 5 23 14 28
78 4 40 13 154 21 253 8 99 15 190 15 202 0 18 6 23 24 23 42 0 56 11 56 41
l0 29 -177 2 c-129 1 -159 3 -108 8 l70 6 -80 4 c-44 3 -98 3 -120 2 -22 -1
-47 1 -55 4 -21 8 -88 14 -200 18 -52 2 -153 13 -225 25 -151 24 -354 27 -508
6z m379 -5 c32 -6 96 -23 142 -37 79 -26 104 -43 62 -43 -11 0 -20 4 -20 9 0
5 -11 9 -24 9 -13 0 -45 7 -72 15 -42 14 -150 37 -234 50 -14 2 0 5 31 6 30 0
82 -4 115 -9z m597 -77 c-29 -2 -77 -2 -105 0 -29 2 -6 3 52 3 58 0 81 -1 53
-3z m-446 -58 c15 -41 12 -91 -8 -142 -14 -37 -25 -17 -34 59 -7 55 -9 59 -37
65 -19 4 -25 9 -17 13 6 5 9 15 6 23 -7 19 8 27 47 24 24 -2 31 -9 43 -42z
m310 34 c-14 -8 -22 -8 -30 0 -8 8 -3 11 19 11 25 -1 27 -2 11 -11z m-4 -46
c-7 -2 -19 -2 -25 0 -7 3 -2 5 12 5 14 0 19 -2 13 -5z m144 -65 c1 -10 -2 -18
-7 -18 -5 0 -14 8 -19 18 -7 14 -6 18 8 18 9 0 18 -8 18 -18z m148 -218 c4
-12 1 -27 -5 -35 -13 -16 -45 -21 -35 -6 3 5 1 12 -4 15 -5 4 -12 -3 -16 -14
-7 -22 -13 -24 -32 -12 -10 6 -10 15 -1 40 11 28 17 32 50 32 28 0 38 -5 43
-20z m19 -62 c7 -29 -24 -118 -41 -118 -7 0 -13 -6 -13 -12 0 -10 -2 -10 -8
-1 -4 7 -21 11 -36 10 -25 -2 -30 3 -42 37 -8 21 -11 49 -8 62 8 29 40 32 47
4 3 -11 1 -20 -4 -20 -21 0 -7 -28 16 -32 14 -3 25 -1 25 3 0 5 7 9 16 9 12 0
15 6 10 26 -6 24 7 54 24 54 4 0 10 -10 14 -22z m-1028 -1133 c1 -8 -4 -15
-12 -15 -8 0 -14 5 -14 10 0 6 5 10 11 10 5 0 7 6 3 13 -4 6 -3 8 1 4 5 -4 10
-14 11 -22z"/>
<path d="M1626 1674 c-4 -9 -4 -19 -1 -22 2 -3 7 3 11 12 4 9 4 19 1 22 -2 3
-7 -3 -11 -12z"/>
<path d="M1676 1675 c4 -8 8 -15 10 -15 2 0 4 7 4 15 0 8 -4 15 -10 15 -5 0
-7 -7 -4 -15z"/>
<path d="M1702 1610 c0 -14 2 -19 5 -12 2 6 2 18 0 25 -3 6 -5 1 -5 -13z"/>
<path d="M1590 1595 c0 -8 2 -15 4 -15 2 0 6 7 10 15 3 8 1 15 -4 15 -6 0 -10
-7 -10 -15z"/>
<path d="M1665 1540 c-3 -5 1 -10 9 -10 9 0 16 5 16 10 0 6 -4 10 -9 10 -6 0
-13 -4 -16 -10z"/>
<path d="M1610 1530 c0 -5 5 -10 10 -10 6 0 10 5 10 10 0 6 -4 10 -10 10 -5 0
-10 -4 -10 -10z"/>
</g>
</svg>
